# xmcd
#
# Track frame offsets: 
#        150
#        14672
#        29872
#        43717
#        63180
#        76112
#        92802
#        108327
#        128690
#        143525
#        158202
#        174007
#        185427
#
# Disc length: 2676 seconds
#
# Revision: 1
# Processed by: cddbd v1.5.2PL0 Copyright (c) Steve Scherf et al.
# Submitted via: ExactAudioCopyFreeDBPlugin 1.0
#
DISCID=a00a720d
DTITLE=Linda Feller - It's Countrytime
DYEAR=2000
DGENRE=Country
TTITLE0=Komm und red mit mir
TTITLE1=Second Hand Affair
TTITLE2=Könntet ihr noch Kinder kriegen
TTITLE3=When You Say Noting At All
TTITLE4=Wunderbar
TTITLE5=You Can Call Me If You Want To
TTITLE6=Tu's doch
TTITLE7=(I Only Wanna Astisfy) You Restless Heart
TTITLE8=Das imponiert mir nicht
TTITLE9=Please Don't Leave Me Alone
TTITLE10=Jeder Tag kann ein Anfang sein
TTITLE11=Put A Little Love In Your Heart
TTITLE12=Und dann steht sie im Rampenlicht
EXTD=
EXTT0=
EXTT1=
EXTT2=
EXTT3=
EXTT4=
EXTT5=
EXTT6=
EXTT7=
EXTT8=
EXTT9=
EXTT10=
EXTT11=
EXTT12=
PLAYORDER=
